<?xml version="1.0" encoding="iso-8859-1"?>
<!-- Generator: Adobe Illustrator 19.0.0, SVG Export Plug-In . SVG Version: 6.00 Build 0)  -->
<svg version="1.1" id="Layer_1" xmlns="http://www.w3.org/2000/svg" xmlns:xlink="http://www.w3.org/1999/xlink" x="0px" y="0px"
	 viewBox="0 0 512 512" style="enable-background:new 0 0 512 512;" xml:space="preserve">
<path style="fill:#97C4E8;" d="M399.833,105.717H112.165V73.351c0-23.808,19.301-43.109,43.109-43.109h201.451
	c23.808,0,43.109,19.301,43.109,43.109V105.717z"/>
<g>
	<path style="fill:#16153B;" d="M399.833,119.958H112.165c-7.865,0-14.241-6.377-14.241-14.241V73.351
		c0-31.622,25.726-57.35,57.35-57.35h201.451c31.624,0,57.35,25.726,57.35,57.35v32.367
		C414.075,113.582,407.699,119.958,399.833,119.958z M126.406,91.476h259.186V73.351c0-15.917-12.951-28.868-28.868-28.868H155.274
		c-15.917,0-28.868,12.951-28.868,28.868L126.406,91.476L126.406,91.476z"/>
	<path style="fill:#16153B;" d="M255.999,495.999c-41.819,0-82.893-13.827-116.235-39.032h-80.14
		C26.747,456.967,0,430.218,0,397.341V151.724c0-32.877,26.747-59.624,59.624-59.624h392.751c32.877,0,59.624,26.747,59.624,59.624
		v245.619c0,32.877-26.748,59.624-59.624,59.624c-7.864,0-14.241-6.377-14.241-14.241s6.377-14.241,14.241-14.241
		c17.173,0,31.142-13.97,31.142-31.142V151.724c0-17.173-13.97-31.142-31.142-31.142H59.624c-17.172,0-31.142,13.969-31.142,31.142
		v245.619c0,17.173,13.97,31.142,31.142,31.142h85.022c3.23,0,6.364,1.098,8.888,3.115c29.421,23.498,64.854,35.919,102.467,35.919
		c37.615,0,73.046-12.421,102.466-35.919c6.148-4.907,15.108-3.905,20.016,2.239c4.909,6.145,3.905,15.107-2.239,20.016
		C342.213,481.03,299.511,495.999,255.999,495.999z"/>
</g>
<circle style="fill:#97C4E8;" cx="255.996" cy="288.779" r="121.775"/>
<g>
	<path style="fill:#16153B;" d="M255.999,424.794c-75,0-136.017-61.018-136.017-136.019s61.017-136.017,136.017-136.017
		s136.019,61.017,136.019,136.017S331,424.794,255.999,424.794z M255.999,181.24c-59.295,0-107.535,48.24-107.535,107.535
		c0,59.297,48.24,107.537,107.535,107.537c59.297,0,107.537-48.24,107.537-107.537C363.536,229.48,315.296,181.24,255.999,181.24z"
		/>
	<path style="fill:#16153B;" d="M112.165,195.482H66.594c-7.865,0-14.241-6.377-14.241-14.241S58.729,167,66.594,167h45.571
		c7.865,0,14.241,6.377,14.241,14.241S120.03,195.482,112.165,195.482z"/>
	<path style="fill:#16153B;" d="M445.405,195.482h-45.571c-7.864,0-14.241-6.377-14.241-14.241S391.97,167,399.833,167h45.571
		c7.864,0,14.241,6.377,14.241,14.241S453.27,195.482,445.405,195.482z"/>
</g>
<g>
</g>
<g>
</g>
<g>
</g>
<g>
</g>
<g>
</g>
<g>
</g>
<g>
</g>
<g>
</g>
<g>
</g>
<g>
</g>
<g>
</g>
<g>
</g>
<g>
</g>
<g>
</g>
<g>
</g>
</svg>
